{"title":"Straight Outta Compton {2015} CAM XVID MP3-MRG","uid":12235610,"size":1873717869,"categoryP":"video","categoryS":"movies","magnet":"?xt=urn:btih:9a19e8cc7fa8f5d0a96e5b13722602c9b1fd193a&amp;dn=Straight+Outta+Compton+%7B2015%7D+CAM+XVID+MP3-MRG&amp;tr=udp%3A%2F%2Ftracker.openbittorrent.com%3A80&amp;tr=udp%3A%2F%2Fopen.demonii.com%3A1337&amp;tr=udp%3A%2F%2Ftracker.coppersurfer.tk%3A6969&amp;tr=udp%3A%2F%2Fexodus.desync.com%3A6969","seeders":233,"leechers":11,"uploader":"SaM","files":5,"time":1439657672,"description":"Straight Outta Compton {2015} CAM XVID MP3-MRG\n\nSource : TayDaRealist..ty\nFormat : AVI\nFormat/Info : Audio Video Interleave\nFormat profile : OpenDML\nFile size : 1.74 GiB\nDuration : 2h 21mn\nOverall bit rate : 1 765 Kbps\nWriting library : Lavf53.24.2\n\nVideo\nID : 0\nFormat : xvid\nCodec ID : xvid\nDuration : 2h 21mn\nBit rate : 1 624 Kbps\nWidth : 720 pixels\nHeight : 288 pixels\nDisplay aspect ratio : 2.35:1\nFrame rate : 25.000 fps\nBits/(Pixel*Frame) : 0.313\nStream size : 1.61 GiB (92%)\n\nAudio\nID : 1\nFormat : MPEG Audio\nFormat version : Version 1\nFormat profile : Layer 3\nMode : Joint stereo\nMode extension : MS Stereo\nCodec ID : 55\nCodec ID/Hint : MP3\nDuration : 2h 21mn\nBit rate mode : Constant\nBit rate : 128 Kbps\nChannel(s) : 2 channels\nSampling rate : 44.1 KHz\nCompression mode : Lossy\nStream size : 130 MiB (7%)\nAlignment : Aligned on interleaves\nInterleave, duration : 26 ms (0.65 video frame)\n &lt;a href=&quot;\nhttp://extraimago.com/image/q6b&quot; rel=&quot;nofollow&quot; target=&quot;_NEW&quot;&gt;\nhttp://extraimago.com/image/q6b&lt;/a&gt;","torrent":{"xt":"urn:btih:9a19e8cc7fa8f5d0a96e5b13722602c9b1fd193a","amp;dn":"Straight+Outta+Compton+%7B2015%7D+CAM+XVID+MP3-MRG","amp;tr":["udp%3A%2F%2Ftracker.openbittorrent.com%3A80","udp%3A%2F%2Fopen.demonii.com%3A1337","udp%3A%2F%2Ftracker.coppersurfer.tk%3A6969","udp%3A%2F%2Fexodus.desync.com%3A6969"],"infoHash":"9a19e8cc7fa8f5d0a96e5b13722602c9b1fd193a","infoHashBuffer":{"type":"Buffer","data":[154,25,232,204,127,168,245,208,169,110,91,19,114,38,2,201,177,253,25,58]},"announce":[],"urlList":[]}}